HIERARCHY
ROOT Hips
{
	OFFSET 0.000000 100.481300 0.000000
	CHANNELS 6 Xposition Yposition Zposition Xrotation Yrotation Zrotation
	JOINT Spine
	{
		OFFSET -0.279200 12.230698 -2.892100
		CHANNELS 3 Xrotation Yrotation Zrotation
		JOINT Spine1
		{
			OFFSET -0.325700 14.269203 -3.374200
			CHANNELS 3 Xrotation Yrotation Zrotation
			JOINT Spine2
			{
				OFFSET -0.372300 16.307602 -0.352600
				CHANNELS 3 Xrotation Yrotation Zrotation
				JOINT Neck
				{
					OFFSET -0.418800 17.814194 8.416900
					CHANNELS 3 Xrotation Yrotation Zrotation
					JOINT Head
					{
						OFFSET 0.000000 7.031097 3.806800
						CHANNELS 3 Xrotation Yrotation Zrotation
						JOINT HeadTop_End
						{
							OFFSET 0.000000 24.646606 12.978600
							CHANNELS 3 Xrotation Yrotation Zrotation
							End Site
							{
								OFFSET 0.000000 27.854965 0.000000
							}
						}
					}
				}
				JOINT LeftShoulder
				{
					OFFSET 16.952999 14.495407 -7.737500
					CHANNELS 3 Xrotation Yrotation Zrotation
					JOINT LeftArm
					{
						OFFSET 9.308998 -2.777710 0.208600
						CHANNELS 3 Xrotation Yrotation Zrotation
						JOINT LeftForeArm
						{
							OFFSET 29.972298 0.000000 0.000000
							CHANNELS 3 Xrotation Yrotation Zrotation
							JOINT LeftHand
							{
								OFFSET 26.026505 0.000000 0.000000
								CHANNELS 3 Xrotation Yrotation Zrotation
								JOINT LeftHandThumb1
								{
									OFFSET 12.240501 -7.147949 9.207150
									CHANNELS 3 Xrotation Yrotation Zrotation
									JOINT LeftHandThumb2
									{
										OFFSET 4.138618 -2.389435 2.389433
										CHANNELS 3 Xrotation Yrotation Zrotation
										JOINT LeftHandThumb3
										{
											OFFSET 2.726913 -1.574387 1.574386
											CHANNELS 3 Xrotation Yrotation Zrotation
											JOINT LeftHandThumb4
											{
												OFFSET 3.941010 -2.275345 2.275342
												CHANNELS 3 Xrotation Yrotation Zrotation
												End Site
												{
													OFFSET -0.005798 5.087799 0.009903
												}
											}
										}
									}
								}
								JOINT LeftHandIndex1
								{
									OFFSET 24.424698 -1.985611 5.953459
									CHANNELS 3 Xrotation Yrotation Zrotation
									JOINT LeftHandIndex2
									{
										OFFSET 6.426697 0.000000 0.000000
										CHANNELS 3 Xrotation Yrotation Zrotation
										JOINT LeftHandIndex3
										{
											OFFSET 5.337898 0.000000 0.000000
											CHANNELS 3 Xrotation Yrotation Zrotation
											JOINT LeftHandIndex4
											{
												OFFSET 4.409401 0.000000 0.000000
												CHANNELS 3 Xrotation Yrotation Zrotation
												End Site
												{
													OFFSET 0.000000 4.409363 0.014373
												}
											}
										}
									}
								}
								JOINT LeftHandMiddle1
								{
									OFFSET 23.810104 0.000000 0.000000
									CHANNELS 3 Xrotation Yrotation Zrotation
									JOINT LeftHandMiddle2
									{
										OFFSET 7.176498 0.000000 0.000000
										CHANNELS 3 Xrotation Yrotation Zrotation
										JOINT LeftHandMiddle3
										{
											OFFSET 6.774902 0.000000 0.000000
											CHANNELS 3 Xrotation Yrotation Zrotation
											JOINT LeftHandMiddle4
											{
												OFFSET 5.403328 0.000000 0.000000
												CHANNELS 3 Xrotation Yrotation Zrotation
												End Site
												{
													OFFSET -0.027702 5.403244 0.017414
												}
											}
										}
									}
								}
								JOINT LeftHandRing1
								{
									OFFSET 22.908401 -0.839279 -6.020567
									CHANNELS 3 Xrotation Yrotation Zrotation
									JOINT LeftHandRing2
									{
										OFFSET 6.337502 0.000000 0.000000
										CHANNELS 3 Xrotation Yrotation Zrotation
										JOINT LeftHandRing3
										{
											OFFSET 5.779297 0.000000 0.000000
											CHANNELS 3 Xrotation Yrotation Zrotation
											JOINT LeftHandRing4
											{
												OFFSET 4.965698 0.000000 0.000000
												CHANNELS 3 Xrotation Yrotation Zrotation
												End Site
												{
													OFFSET 0.000000 4.965668 0.016186
												}
											}
										}
									}
								}
								JOINT LeftHandPinky1
								{
									OFFSET 20.037003 -1.530319 -10.950146
									CHANNELS 3 Xrotation Yrotation Zrotation
									JOINT LeftHandPinky2
									{
										OFFSET 5.254700 0.000000 0.000000
										CHANNELS 3 Xrotation Yrotation Zrotation
										JOINT LeftHandPinky3
										{
											OFFSET 4.810204 0.000000 0.000000
											CHANNELS 3 Xrotation Yrotation Zrotation
											JOINT LeftHandPinky4
											{
												OFFSET 3.647202 0.000000 0.000000
												CHANNELS 3 Xrotation Yrotation Zrotation
												End Site
												{
													OFFSET 0.000000 3.647186 0.011889
												}
											}
										}
									}
								}
							}
						}
					}
				}
				JOINT RightShoulder
				{
					OFFSET -15.141001 14.495407 -7.737500
					CHANNELS 3 Xrotation Yrotation Zrotation
					JOINT RightArm
					{
						OFFSET -9.308998 -2.777710 0.208500
						CHANNELS 3 Xrotation Yrotation Zrotation
						JOINT RightForeArm
						{
							OFFSET -29.972300 0.000000 0.000000
							CHANNELS 3 Xrotation Yrotation Zrotation
							JOINT RightHand
							{
								OFFSET -26.026505 0.000000 0.000000
								CHANNELS 3 Xrotation Yrotation Zrotation
								JOINT RightHandThumb1
								{
									OFFSET -12.240601 -7.148026 9.207092
									CHANNELS 3 Xrotation Yrotation Zrotation
									JOINT RightHandThumb2
									{
										OFFSET -4.138618 -2.389435 2.389433
										CHANNELS 3 Xrotation Yrotation Zrotation
										JOINT RightHandThumb3
										{
											OFFSET -2.726974 -1.574417 1.574421
											CHANNELS 3 Xrotation Yrotation Zrotation
											JOINT RightHandThumb4
											{
												OFFSET -3.941010 -2.275345 2.275343
												CHANNELS 3 Xrotation Yrotation Zrotation
												End Site
												{
													OFFSET 0.005814 5.087799 0.009927
												}
											}
										}
									}
								}
								JOINT RightHandIndex1
								{
									OFFSET -24.424698 -1.985657 5.953444
									CHANNELS 3 Xrotation Yrotation Zrotation
									JOINT RightHandIndex2
									{
										OFFSET -6.426697 0.000000 0.000000
										CHANNELS 3 Xrotation Yrotation Zrotation
										JOINT RightHandIndex3
										{
											OFFSET -5.337898 0.000000 0.000000
											CHANNELS 3 Xrotation Yrotation Zrotation
											JOINT RightHandIndex4
											{
												OFFSET -4.409401 0.000000 0.000000
												CHANNELS 3 Xrotation Yrotation Zrotation
												End Site
												{
													OFFSET 0.000000 4.409363 0.014408
												}
											}
										}
									}
								}
								JOINT RightHandMiddle1
								{
									OFFSET -23.810097 0.000000 0.000000
									CHANNELS 3 Xrotation Yrotation Zrotation
									JOINT RightHandMiddle2
									{
										OFFSET -7.176498 0.000000 0.000000
										CHANNELS 3 Xrotation Yrotation Zrotation
										JOINT RightHandMiddle3
										{
											OFFSET -6.774902 0.000000 0.000000
											CHANNELS 3 Xrotation Yrotation Zrotation
											JOINT RightHandMiddle4
											{
												OFFSET -5.403328 0.000000 0.000000
												CHANNELS 3 Xrotation Yrotation Zrotation
												End Site
												{
													OFFSET 0.027702 5.403244 0.017457
												}
											}
										}
									}
								}
								JOINT RightHandRing1
								{
									OFFSET -22.908302 -0.839325 -6.020576
									CHANNELS 3 Xrotation Yrotation Zrotation
									JOINT RightHandRing2
									{
										OFFSET -6.337502 0.000000 0.000000
										CHANNELS 3 Xrotation Yrotation Zrotation
										JOINT RightHandRing3
										{
											OFFSET -5.779297 0.000000 0.000000
											CHANNELS 3 Xrotation Yrotation Zrotation
											JOINT RightHandRing4
											{
												OFFSET -4.965698 0.000000 0.000000
												CHANNELS 3 Xrotation Yrotation Zrotation
												End Site
												{
													OFFSET 0.000000 4.965668 0.016226
												}
											}
										}
									}
								}
								JOINT RightHandPinky1
								{
									OFFSET -20.037003 -1.530334 -10.950259
									CHANNELS 3 Xrotation Yrotation Zrotation
									JOINT RightHandPinky2
									{
										OFFSET -5.254700 0.000000 0.000000
										CHANNELS 3 Xrotation Yrotation Zrotation
										JOINT RightHandPinky3
										{
											OFFSET -4.810204 0.000000 0.000000
											CHANNELS 3 Xrotation Yrotation Zrotation
											JOINT RightHandPinky4
											{
												OFFSET -3.647202 0.000000 0.000000
												CHANNELS 3 Xrotation Yrotation Zrotation
												End Site
												{
													OFFSET 0.000000 3.647186 0.011917
												}
											}
										}
									}
								}
							}
						}
					}
				}
			}
		}
	}
	JOINT LeftUpLeg
	{
		OFFSET 15.427100 -6.655098 0.678600
		CHANNELS 3 Xrotation Yrotation Zrotation
		JOINT LeftLeg
		{
			OFFSET 4.081073 -39.591068 13.024000
			CHANNELS 3 Xrotation Yrotation Zrotation
			JOINT LeftFoot
			{
				OFFSET -4.081074 -37.707932 -15.979700
				CHANNELS 3 Xrotation Yrotation Zrotation
				JOINT LeftToeBase
				{
					OFFSET 5.346399 -15.068900 20.645000
					CHANNELS 3 Xrotation Yrotation Zrotation
					JOINT LeftToe_End
					{
						OFFSET 2.754700 0.931300 11.300900
						CHANNELS 3 Xrotation Yrotation Zrotation
						End Site
						{
							OFFSET 0.000000 11.669021 0.000000
						}
					}
				}
			}
		}
	}
	JOINT RightUpLeg
	{
		OFFSET -15.569500 -6.655098 0.678600
		CHANNELS 3 Xrotation Yrotation Zrotation
		JOINT RightLeg
		{
			OFFSET -4.081825 -39.591045 13.023800
			CHANNELS 3 Xrotation Yrotation Zrotation
			JOINT RightFoot
			{
				OFFSET 4.081824 -37.707954 -15.979600
				CHANNELS 3 Xrotation Yrotation Zrotation
				JOINT RightToeBase
				{
					OFFSET -5.346400 -15.068900 20.645000
					CHANNELS 3 Xrotation Yrotation Zrotation
					JOINT RightToe_End
					{
						OFFSET -2.754700 0.931300 11.300900
						CHANNELS 3 Xrotation Yrotation Zrotation
						End Site
						{
							OFFSET 0.000000 11.669021 0.000000
						}
					}
				}
			}
		}
	}
}
MOTION
Frames: 5
Frame Time: 0.033333
1.071191 97.619934 -0.670784 -3.751394 -5.193530 -3.906405 3.306547 1.525143 2.872309 1.151890 0.338614 1.548966 1.126014 0.371942 1.544578 5.626309 -0.075631 0.454683 -7.563349 1.377024 -0.080262 -0.000000 0.000000 -0.000000 1.043676 -17.441219 -12.323729 3.916255 -19.989254 -69.765253 0.000006 -1.459363 0.000001 -33.230417 -1.364819 -6.186629 -0.663002 2.160315 4.832506 11.851698 25.421445 17.058544 -13.813932 3.537281 9.035989 -0.000001 -0.000002 0.000001 0.016423 -0.969146 -7.593330 0.267870 1.752892 -17.375725 0.057682 0.820953 -8.038017 0.000000 0.000000 0.000002 -0.076311 2.665778 -15.696821 0.268786 1.755804 -17.405526 0.300524 1.853982 -18.413333 0.000001 -0.000001 -0.000001 0.136903 3.641772 -21.133536 0.386625 2.094791 -20.911889 0.283039 1.800630 -17.865005 0.000000 -0.000000 -0.000005 0.918834 5.560462 -27.127254 0.268794 1.755841 -17.405882 0.241909 1.667699 -16.505888 0.000001 0.000000 0.000001 1.209424 15.345243 14.705939 13.158869 27.555109 58.785130 0.000004 6.689821 0.000000 -20.176227 -0.513642 6.782926 -1.665258 -0.174493 -4.218877 12.706240 -29.824970 -16.131766 -15.549404 -3.559408 -12.707134 -0.000003 -0.000000 -0.000001 0.037321 1.262156 6.823654 0.213722 -1.396031 17.407029 0.046028 -0.653847 8.053232 -0.000001 -0.000001 -0.000000 -0.135526 -2.207730 14.998677 0.214453 -1.398347 17.436898 0.239770 -1.476530 18.446263 -0.000000 0.000001 0.000001 0.030607 -3.075762 20.451038 0.308441 -1.668280 20.948537 0.225827 -1.434054 17.897090 -0.000000 0.000001 -0.000001 0.755048 -4.882172 26.474220 0.214459 -1.398381 17.437241 0.193013 -1.328195 16.535813 -0.000001 -0.000002 -0.000000 -10.206605 14.659852 11.519107 12.136357 1.647986 4.070497 0.796169 0.795353 -8.235397 -4.927504 0.000001 0.000003 -0.000000 -0.000000 0.000000 3.686469 -10.089324 1.720606 6.591160 -8.481839 -2.382506 -5.335011 -3.061532 5.002831 -7.282874 0.000002 0.000002 -0.000000 0.000002 0.000000 
1.077399 97.631104 -0.657976 -3.694054 -5.194325 -3.902956 3.306498 1.525706 2.874059 1.163572 0.338614 1.548967 1.137479 0.371942 1.544578 5.735374 -0.071643 0.427188 -8.402041 1.291439 0.043328 -0.000000 0.000000 -0.000000 1.043674 -17.441221 -12.323730 3.938416 -19.957572 -69.770068 -0.000009 -1.542062 0.000009 -33.255187 -1.867445 -5.738494 -0.752558 2.023925 4.820787 11.955738 25.486470 16.708912 -13.824910 3.476817 9.153947 0.000000 0.000001 -0.000001 0.033579 -1.019144 -7.266244 0.267586 1.751979 -17.366422 0.057546 0.819984 -8.028471 -0.000001 0.000000 0.000006 -0.081596 2.615786 -15.343392 0.267972 1.753213 -17.378976 0.299693 1.851472 -18.387501 0.000000 -0.000000 0.000001 0.139316 3.597171 -19.924002 0.372919 2.058599 -20.533774 0.271261 1.763676 -17.486165 0.000000 -0.000000 -0.000000 0.943630 5.655279 -25.475279 0.264686 1.742694 -17.271342 0.230682 1.629344 -16.115621 0.000000 -0.000001 -0.000002 1.202705 15.357105 14.720227 13.140023 27.536896 58.772009 -0.000000 6.689839 -0.000018 -20.179236 -0.488172 6.762041 -1.718135 -0.050333 -4.202987 12.788889 -29.872970 -15.887145 -15.460814 -3.465675 -12.626337 -0.000000 0.000001 -0.000003 0.039549 1.265082 6.787822 0.215004 -1.400094 17.459384 0.046547 -0.657494 8.098351 0.000002 -0.000001 -0.000003 -0.135447 -2.203500 14.948863 0.214444 -1.398345 17.436867 0.239769 -1.476524 18.446270 0.000000 0.000000 0.000001 0.028276 -3.069506 20.451432 0.308867 -1.669382 20.962969 0.226186 -1.435169 17.911625 0.000001 0.000000 0.000001 0.759390 -4.891189 26.458623 0.214234 -1.397684 17.428196 0.192807 -1.327481 16.526824 -0.000001 -0.000002 0.000002 -10.272814 14.678643 11.541263 12.126548 1.609418 4.042576 0.862340 0.792502 -8.284669 -4.927506 -0.000002 -0.000001 0.000000 0.000000 -0.000000 3.648424 -10.089629 1.707801 6.558921 -8.480593 -2.360298 -5.311771 -3.063528 4.996900 -7.271942 0.000011 0.000000 -0.000001 -0.000001 -0.000000 
1.082419 97.657036 -0.656713 -3.629901 -5.184374 -3.899183 3.306420 1.526408 2.876785 1.179302 0.338614 1.548966 1.153133 0.371942 1.544577 5.896452 -0.048809 0.403994 -9.256114 1.291891 0.265847 -0.000000 0.000000 0.000000 1.043674 -17.441218 -12.323730 3.927804 -19.913179 -69.746709 0.000012 -1.568493 -0.000012 -33.500630 -2.262513 -5.651646 -0.665344 2.156960 4.831815 11.821547 25.384690 17.178938 -13.728388 3.558561 8.768541 0.000001 -0.000000 0.000001 0.077605 -1.059239 -6.782539 0.267207 1.750759 -17.353902 0.057366 0.818715 -8.015948 -0.000000 -0.000001 0.000001 -0.071539 2.613196 -14.889932 0.267546 1.751855 -17.365105 0.299214 1.850041 -18.372814 0.000000 -0.000001 -0.000000 0.142914 3.570823 -19.020491 0.363436 2.033108 -20.268066 0.263129 1.737677 -17.220090 -0.000001 -0.000001 -0.000002 0.965914 5.768543 -24.306167 0.260381 1.728784 -17.129109 0.224554 1.607994 -15.898630 -0.000000 -0.000000 0.000001 1.195586 15.377247 14.727959 13.113788 27.536051 58.756415 -0.000005 6.689840 -0.000015 -20.180605 -0.476212 6.751445 -1.783234 0.067036 -4.200244 12.886093 -29.916468 -15.603405 -15.371148 -3.367932 -12.543600 0.000002 0.000000 -0.000003 0.043986 1.270941 6.716010 0.215082 -1.400357 17.462670 0.046757 -0.658981 8.116957 0.000001 -0.000002 -0.000003 -0.136262 -2.193260 14.869100 0.214203 -1.397567 17.426872 0.239510 -1.475765 18.436301 0.000000 0.000001 -0.000001 0.019988 -3.046604 20.437113 0.309940 -1.672160 20.999616 0.227117 -1.438045 17.948697 -0.000000 0.000001 -0.000001 0.763650 -4.900259 26.434760 0.214619 -1.398892 17.443876 0.193165 -1.328706 16.542515 0.000000 -0.000002 0.000002 -10.350306 14.704620 11.573624 12.085501 1.553525 4.002310 0.988367 0.788043 -8.349413 -4.927504 0.000002 0.000000 0.000000 0.000000 -0.000000 3.587390 -10.091471 1.696041 6.530041 -8.483235 -2.339118 -5.237039 -3.059897 4.989717 -7.257378 0.000005 0.000001 0.000001 -0.000002 -0.000000 
1.084053 97.692825 -0.669837 -3.568129 -5.155624 -3.896031 3.306870 1.527223 2.877408 1.195900 0.338613 1.548967 1.169826 0.371943 1.544577 6.091974 0.008846 0.418778 -9.438574 1.462616 0.612552 -0.000000 0.000000 0.000000 1.045673 -17.432492 -12.323132 3.891158 -19.874372 -69.682239 -0.000005 -1.577849 0.000010 -33.687743 -2.484013 -5.794047 -0.451039 2.483354 4.859566 11.580300 25.219799 18.039042 -13.589109 3.689362 8.253989 0.000000 -0.000001 0.000002 0.191650 -1.101125 -6.062493 0.268941 1.756317 -17.410755 0.058180 0.824474 -8.072730 -0.000000 -0.000000 0.000001 -0.035083 2.692108 -14.147273 0.267077 1.750360 -17.349807 0.298669 1.848403 -18.355958 0.000000 0.000001 0.000004 0.155288 3.578690 -18.257765 0.356600 2.014512 -20.074501 0.257265 1.718649 -17.025590 0.000000 0.000000 -0.000000 1.031000 5.980832 -23.538184 0.256012 1.714565 -16.983795 0.221803 1.598306 -15.800301 0.000000 -0.000000 0.000000 1.195444 15.408091 14.711070 13.087414 27.556726 58.755084 -0.000001 6.694138 0.000012 -20.196917 -0.474983 6.777928 -1.838252 0.207958 -4.176776 13.002158 -29.966598 -15.266444 -15.288151 -3.285064 -12.451661 -0.000001 0.000001 -0.000003 0.046161 1.281874 6.668525 0.213870 -1.396499 17.413012 0.046387 -0.656411 8.085000 -0.000001 -0.000002 -0.000001 -0.144820 -2.163529 14.898441 0.213590 -1.395614 17.401744 0.238866 -1.473816 18.411108 0.000003 -0.000001 0.000001 0.014402 -3.030327 20.410224 0.308899 -1.669459 20.964065 0.226233 -1.435318 17.913457 -0.000001 -0.000000 0.000001 0.759877 -4.892669 26.436473 0.214399 -1.398172 17.434669 0.192951 -1.327983 16.533188 -0.000001 -0.000001 0.000003 -10.428893 14.719684 11.600926 12.019282 1.494167 3.970642 1.146268 0.783370 -8.419434 -4.927506 -0.000002 0.000001 0.000000 -0.000000 0.000000 3.530078 -10.096735 1.700032 6.482639 -8.500683 -2.335868 -5.136788 -3.055840 4.985810 -7.253378 0.000005 0.000000 0.000001 0.000002 0.000000 
1.079615 97.721245 -0.696690 -3.525733 -5.103508 -3.890821 3.308686 1.528015 2.870535 1.207726 0.338614 1.548966 1.181691 0.371942 1.544578 6.348171 0.103747 0.477488 -8.373723 1.852351 1.046677 0.000000 -0.000000 -0.000000 1.047875 -17.422885 -12.322479 3.862008 -19.835305 -69.550375 -0.000000 -1.616255 0.000005 -33.699829 -2.543879 -5.921973 -0.303103 2.708216 4.879486 11.463896 25.140069 18.451409 -13.469111 3.709525 8.030364 0.000000 0.000001 -0.000002 0.405239 -1.130365 -5.146980 0.273415 1.770499 -17.556014 0.060282 0.839159 -8.217516 0.000001 0.000000 0.000001 0.035972 2.913461 -13.121455 0.265100 1.744024 -17.284922 0.296658 1.842329 -18.293478 0.000000 0.000001 0.000004 0.186144 3.651947 -17.574265 0.351332 2.000043 -19.924135 0.252713 1.703719 -16.873161 0.000000 0.000001 0.000001 1.159962 6.358003 -22.989990 0.251748 1.700529 -16.840554 0.221178 1.596094 -15.777909 -0.000001 -0.000000 0.000002 1.201214 15.449712 14.679222 13.072852 27.582874 58.758806 0.000001 6.719206 -0.000009 -20.232909 -0.478607 6.836037 -1.909809 0.495979 -4.084979 13.126369 -30.060404 -14.900807 -15.173388 -3.165556 -12.334422 -0.000001 0.000000 0.000000 0.034506 1.331427 6.641157 0.212827 -1.393159 17.370110 0.045414 -0.649506 7.999302 -0.000001 -0.000001 0.000000 -0.155918 -2.146922 15.165906 0.213549 -1.395487 17.400110 0.238814 -1.473665 18.409195 -0.000000 0.000002 0.000002 0.023087 -3.056884 20.480256 0.304910 -1.659007 20.826645 0.222787 -1.424627 17.775571 -0.000000 -0.000001 -0.000002 0.751134 -4.872358 26.567209 0.212513 -1.392168 17.357355 0.191153 -1.321925 16.455633 0.000002 0.000002 0.000001 -10.488778 14.723419 11.591605 11.956529 1.454520 3.969020 1.244764 0.764760 -8.419687 -4.927508 0.000007 0.000003 0.000000 0.000001 0.000000 3.480355 -10.081392 1.708342 6.458319 -8.565318 -2.357171 -5.053399 -3.058247 5.003925 -7.254054 0.000002 0.000002 -0.000001 0.000000 0.000000 
